<ttFont>
          <CharString index="0">
            -100 78 vlineto
            27 0 50 0 28 0 77 0 rlineto
            return
          </CharString>
          <CharString index="1">
            -195 -205 195 vlineto
            return
          </CharString>
          <CharString index="2">
            77 -100 78 hlineto
            27 0 50 0 28 0 77 0 0 100 rlineto
            return
          </CharString>
          <CharString index="3">
            -100 -127 295 vlineto
            return
          </CharString>
          <CharString index="4">
            -100 78 vlineto
            27 0 78 0 rlineto
            return
          </CharString>
          <CharString index="5">
            78 0 27 0 50 0 28 0 77 0 0 105 -77 0 rlineto
            return
          </CharString>
        <CharString name=".notdef">
          -18 0 49 455 49 hstem
          49 49 298 49 vstem
          49 hmoveto
          396 553 -396 hlineto
          49 -504 rmoveto
          455 298 -455 vlineto
          endchar
        </CharString>
        <CharString name="57504">
          -101 105 -5 105 395 105 100 -20 hstemhm
          66 182 -182 105 50 105 -28 105 hintmask 01110010
          221 499 rmoveto
          hintmask 01110001
          77 -395 hlineto
          hintmask 01110110
          -77 hlineto
          hintmask 10110110
          -100 -155 vlineto
          hintmask 10111000
          -105 182 vlineto
          hintmask 01111000
          100 vlineto
          hintmask 01110010
          78 100 hlineto
          hintmask 01110001
          77 400 78 105 -78 100 -105 -100 hlineto
          hintmask 01110010
          -77 hlineto
          hintmask 00110100
          -50 100 rmoveto
          -105 -605 105 hlineto
          endchar
        </CharString>
        <CharString name="57505">
          -1 105 -5 105 95 105 300 -20 hstemhm
          66 105 -28 183 -183 105 50 183 -105 105 hintmask 0111100000000000
          171 704 rmoveto
          -105 -405 hlineto
          hintmask 0111001100000000
          77 -400 105 200 50 hlineto
          hintmask 1011000100000000
          -100 vlineto
          hintmask 1011010010000000
          78 -100 105 405 -105 -200 -50 hlineto
          hintmask 0111010000000000
          100 vlineto
          hintmask 0111001000000000
          -78 95 hlineto
          hintmask 0111010000000000
          78 105 hlineto
          hintmask 0111100000000000
          -155 hlineto
          endchar
        </CharString>
        <CharString name="57506">
          -1 105 295 105 95 105 hstemhm
          66 182 -182 105 127 183 -105 105 hintmask 11101010
          376 599 rmoveto
          -95 -205 95 vlineto
          -28 105 rmoveto
          -100 -77 -605 77 vlineto
          28 0 50 0 rlineto
          hintmask 11110100
          27 0 50 0 28 0 rlineto
          hintmask 11101010
          50 0 27 0 78 0 0 605 -78 0 0 100 rlineto
          -27 -305 rmoveto
          -95 vlineto
          hintmask 11110100
          -78 -200 -50 200 hlineto
          hintmask 11101010
          -77 95 hlineto
          endchar
        </CharString>
        <CharString name="57520">
          299 105 hstemhm
          66 260 -260 182 -182 105 hintmask 10010000
          66 -101 rmoveto
          105 100 hlineto
          hintmask 10100000
          77 100 hlineto
          hintmask 11000000
          78 100 77 100 78 105 -78 100 -77 100 hlineto
          hintmask 10100000
          -78 100 hlineto
          hintmask 10010000
          -77 100 -105 hlineto
          endchar
        </CharString>
        <CharString name="57521">
          -101 105 -5 105 -5 105 -5 105 -5 105 -5 105 -5 105 -5 105 -5 105 hstemhm
          66 105 -28 105 -27 105 -28 105 -27 105 hintmask 0000000011000000
          66 699 rmoveto
          hintmask 0000000010100000
          77 hlineto
          hintmask 0000000100100000
          -100 vlineto
          hintmask 0000000100010000
          78 hlineto
          hintmask 0000001000010000
          -100 vlineto
          hintmask 0000001000001000
          77 hlineto
          hintmask 0001010000001000
          -100 vlineto
          hintmask 0001010000000100
          78 -95 hlineto
          hintmask 0001000000001000
          -78 hlineto
          hintmask 0010000000001000
          -100 vlineto
          hintmask 0010000000010000
          -77 hlineto
          hintmask 0100000000010000
          -100 vlineto
          hintmask 0100000000100000
          -78 hlineto
          hintmask 1000000000100000
          -100 vlineto
          hintmask 1000000001000000
          -77 -105 105 hlineto
          hintmask 0100000001000000
          100 vlineto
          hintmask 0100000000100000
          77 hlineto
          hintmask 0010000000100000
          100 vlineto
          hintmask 0010000000010000
          78 hlineto
          hintmask 0001000000010000
          100 vlineto
          hintmask 0001000000001000
          77 hlineto
          hintmask 0000100000001000
          100 vlineto
          hintmask 0000100000000100
          78 105 hlineto
          hintmask 0000100000001000
          -78 hlineto
          hintmask 0000010000001000
          100 vlineto
          hintmask 0000010000010000
          -77 hlineto
          hintmask 0000001000010000
          100 vlineto
          hintmask 0000001000100000
          -78 hlineto
          hintmask 0000000100100000
          100 vlineto
          hintmask 0000000101000000
          -77 hlineto
          hintmask 0000000011000000
          100 -105 vlineto
          endchar
        </CharString>
        <CharString name="57522">
          299 105 hstemhm
          221 260 -183 183 -105 105 hintmask 11000000
          66 299 rmoveto
          77 -100 78 -100 hlineto
          hintmask 10100000
          77 -100 hlineto
          hintmask 10010000
          78 -100 105 905 -105 -100 hlineto
          hintmask 10100000
          -78 -100 hlineto
          hintmask 11000000
          -77 -100 -78 -100 -77 hlineto
          endchar
        </CharString>
        <CharString name="57523">
          -101 105 -5 105 -5 105 -5 105 -5 105 -5 105 -5 105 -5 105 -5 105 hstemhm
          66 105 -28 105 -27 105 -28 105 -27 105 hintmask 0000100001000000
          66 299 rmoveto
          hintmask 0000100000100000
          77 hlineto
          hintmask 0001000000100000
          -100 vlineto
          hintmask 0001000000010000
          78 hlineto
          hintmask 0010000000010000
          -100 vlineto
          hintmask 0010000000001000
          77 hlineto
          hintmask 0100000000001000
          -100 vlineto
          hintmask 0100000000000100
          78 hlineto
          hintmask 1000000000000100
          -100 105 105 vlineto
          hintmask 1000000000001000
          -78 hlineto
          hintmask 0100000000001000
          100 vlineto
          hintmask 0100000000010000
          -77 hlineto
          hintmask 0010000000010000
          100 vlineto
          hintmask 0010000000100000
          -78 hlineto
          hintmask 0001010000100000
          100 vlineto
          hintmask 0001010001000000
          -77 95 hlineto
          hintmask 0000010000100000
          77 hlineto
          hintmask 0000001000100000
          100 vlineto
          hintmask 0000001000010000
          78 hlineto
          hintmask 0000000100010000
          100 vlineto
          hintmask 0000000100001000
          77 hlineto
          hintmask 0000000010001000
          100 vlineto
          hintmask 0000000010000100
          78 105 -105 hlineto
          hintmask 0000000100000100
          -100 vlineto
          hintmask 0000000100001000
          -78 hlineto
          hintmask 0000001000001000
          -100 vlineto
          hintmask 0000001000010000
          -77 hlineto
          hintmask 0000010000010000
          -100 vlineto
          hintmask 0000010000100000
          -78 hlineto
          hintmask 0000100000100000
          -100 vlineto
          hintmask 0000100001000000
          -77 hlineto
          endchar
        </CharString>
        <CharString name="A">
          20 -21 21 -21 200 105 195 105 -5 105 hstemhm
          66 105 -28 105 -27 105 -28 105 -27 105 hintmask 0010101010000000
          248 599 rmoveto
          50 hlineto
          hintmask 0011000010000000
          -100 vlineto
          hintmask 0011010001000000
          78 -195 -205 195 hlineto
          hintmask 0011001010000000
          77 hlineto
          hintmask 1011000100000000
          -27 105 rmoveto
          hintmask 1011001000000000
          -78 -100 hlineto
          hintmask 1011010001000000
          -77 -505 105 200 205 -200 105 505 hlineto
          hintmask 0011000010000000
          -78 100 hlineto
          hintmask 0011000100000000
          -77 hlineto
          hintmask 0010100100000000
          100 -105 vlineto
          endchar
        </CharString>
        <CharString name="B">
          -1 105 195 105 195 105 hstemhm
          66 337 -337 105 205 105 cntrmask 11100000
          hintmask 11110000
          66 704 rmoveto
          -705 77 vlineto
          hintmask 11101000
          28 0 50 0 27 0 50 0 28 0 rlineto
          hintmask 11110000
          77 100 hlineto
          hintmask 11100100
          78 205 hlineto
          hintmask 11110000
          -78 95 hlineto
          hintmask 11100100
          78 205 hlineto
          hintmask 11110000
          -78 100 hlineto
          hintmask 11101100
          -27 -105 rmoveto
          -106 callsubr
          205 -300 rmoveto
          -106 callsubr
          endchar
        </CharString>
        <CharString name="C">
          -1 105 -5 105 295 105 -5 105 hstemhm
          66 105 -28 260 -27 105 hintmask 00010010
          376 599 rmoveto
          hintmask 00100010
          -100 105 105 vlineto
          hintmask 00100100
          -78 hlineto
          hintmask 00010100
          100 -260 vlineto
          hintmask 01100100
          -100 vlineto
          hintmask 01101000
          -77 -505 hlineto
          hintmask 01000100
          77 hlineto
          hintmask 10000100
          -107 callsubr
          hintmask 01000100
          100 vlineto
          hintmask 01001010
          78 105 -105 hlineto
          hintmask 10011010
          -100 -205 495 vlineto
          endchar
        </CharString>
        <CharString name="D">
          -1 105 -5 105 295 105 -5 105 hstemhm
          66 260 -260 105 127 105 -27 105 hintmask 10011000
          66 704 rmoveto
          -705 77 vlineto
          hintmask 10000100
          28 0 50 0 27 0 rlineto
          hintmask 10001000
          78 hlineto
          hintmask 01101000
          100 vlineto
          hintmask 01100010
          77 100 hlineto
          hintmask 00100001
          78 305 hlineto
          hintmask 00100010
          -78 100 hlineto
          hintmask 00101000
          -77 hlineto
          hintmask 10011000
          100 vlineto
          hintmask 00010010
          -28 -105 rmoveto
          hintmask 01100010
          -100 vlineto
          hintmask 01100001
          78 -295 hlineto
          hintmask 01000110
          -78 hlineto
          hintmask 10010110
          -100 -127 495 vlineto
          endchar
        </CharString>
        <CharString name="E">
          -1 105 195 105 195 105 hstem
          66 105 vstem
          cntrmask 11100000
          66 704 rmoveto
          -705 77 vlineto
          28 0 50 0 27 0 50 0 28 0 50 0 27 0 78 0 0 105 -310 0 0 195 232 0 0 105 -232 0 0 195 rlineto
          310 105 hlineto
          endchar
        </CharString>
        <CharString name="F">
          20 -21 21 -21 300 105 195 105 hstemhm
          66 105 hintmask 10111000
          66 704 rmoveto
          -705 105 300 232 105 -232 195 310 105 vlineto
          endchar
        </CharString>
        <CharString name="G">
          -1 105 95 105 295 105 hstemhm
          66 105 127 183 -105 105 hintmask 11111000
          298 199 rmoveto
          hintmask 11110100
          78 -95 -205 495 310 105 -338 -100 -77 -505 77 -100 78 hlineto
          27 0 rlineto
          hintmask 11111000
          50 0 28 0 rlineto
          hintmask 11110100
          50 0 27 0 78 0 rlineto
          hintmask 11111000
          305 -183 vlineto
          endchar
        </CharString>
        <CharString name="H">
          20 -21 300 105 hstem
          66 105 205 105 vstem
          171 704 rmoveto
          -105 -705 105 300 205 -300 105 705 -105 -300 -205 hlineto
          endchar
        </CharString>
        <CharString name="I">
          -1 105 495 105 hstem
          143 260 vstem
          143 599 rmoveto
          78 -495 -78 -105 78 hlineto
          27 0 50 0 28 0 77 0 0 105 -77 0 0 495 77 0 0 105 -260 0 rlineto
          endchar
        </CharString>
        <CharString name="J">
          -1 105 -5 105 500 -20 hstemhm
          66 105 205 105 hintmask 01111000
          66 99 rmoveto
          77 hlineto
          hintmask 10111000
          -107 callsubr
          hintmask 01111000
          100 78 605 -105 vlineto
          hintmask 10111000
          -600 -205 vlineto
          hintmask 01111000
          100 -105 vlineto
          endchar
        </CharString>
        <CharString name="K">
          -1 105 -5 105 -5 105 -5 105 -5 105 -5 105 -5 105 hstemhm
          66 105 50 105 -28 105 -27 105 hintmask 1001001110000000
          171 704 rmoveto
          -105 -705 105 300 50 hlineto
          hintmask 0010000110000000
          -100 vlineto
          hintmask 0010000101000000
          77 hlineto
          hintmask 0100000101000000
          -100 vlineto
          hintmask 0100000100100000
          78 hlineto
          hintmask 1000000100100000
          -100 105 105 vlineto
          hintmask 1000000101000000
          -78 hlineto
          hintmask 0100000101000000
          100 vlineto
          hintmask 0100000110000000
          -77 hlineto
          hintmask 0010100110000000
          100 -78 95 78 vlineto
          hintmask 0000010110000000
          100 vlineto
          hintmask 0000010101000000
          77 hlineto
          hintmask 0000001101000000
          100 vlineto
          hintmask 0000001100100000
          78 105 -105 hlineto
          hintmask 0000010100100000
          -100 vlineto
          hintmask 0000010101000000
          -78 hlineto
          hintmask 0000100101000000
          -100 vlineto
          hintmask 0000100110000000
          -77 hlineto
          hintmask 1001001110000000
          -100 -50 vlineto
          endchar
        </CharString>
        <CharString name="L">
          -1 105 hstem
          66 105 vstem
          171 704 rmoveto
          -105 -705 77 hlineto
          28 0 50 0 27 0 50 0 28 0 50 0 27 0 78 0 0 105 -310 0 rlineto
          endchar
        </CharString>
        <CharString name="M">
          20 -21 21 -21 500 105 100 -20 hstemhm
          66 182 -182 105 50 105 -28 183 -105 105 hintmask 1011011010000000
          66 -1 rmoveto
          105 500 50 -200 105 200 50 -500 105 705 -105 -100 hlineto
          hintmask 1011100100000000
          -78 -100 -50 100 hlineto
          hintmask 1011011010000000
          -77 100 -105 hlineto
          endchar
        </CharString>
        <CharString name="N">
          20 -21 21 -21 200 105 -5 105 -5 105 200 -20 hstemhm
          66 182 -182 105 50 105 -28 183 -105 105 hintmask 1000110110000000
          171 704 rmoveto
          -105 -705 105 400 50 hlineto
          hintmask 0001010010000000
          -100 vlineto
          hintmask 0001010001000000
          77 hlineto
          hintmask 1010010001000000
          -100 vlineto
          hintmask 1010010010100000
          78 -200 105 705 -105 -400 -50 hlineto
          hintmask 0001010010000000
          100 vlineto
          hintmask 0001011000000000
          -78 hlineto
          hintmask 1000111000000000
          100 vlineto
          hintmask 1000110110000000
          -77 hlineto
          endchar
        </CharString>
        <CharString name="O">
          -1 105 495 105 hstemhm
          66 105 -28 260 -27 105 hintmask 11101000
          376 599 rmoveto
          -495 -205 495 vlineto
          hintmask 11010000
          -28 105 rmoveto
          -100 vlineto
          hintmask 11100000
          -77 -505 hlineto
          hintmask 11010000
          -105 callsubr
          hintmask 11001000
          78 505 hlineto
          hintmask 11010000
          -78 100 hlineto
          endchar
        </CharString>
        <CharString name="P">
          20 -21 300 105 195 105 hstem
          66 105 205 105 vstem
          66 704 rmoveto
          -705 105 300 232 100 78 205 -78 100 vlineto
          -27 -105 rmoveto
          -106 callsubr
          endchar
        </CharString>
        <CharString name="Q">
          -1 105 -5 105 -5 105 295 105 hstemhm
          66 105 -28 183 -105 105 -28 105 -27 105 hintmask 1011001000000000
          221 199 rmoveto
          hintmask 1011100100000000
          77 -95 -127 495 hlineto
          hintmask 0101001010000000
          205 -395 -50 hlineto
          hintmask 1011001000000000
          100 -105 vlineto
          hintmask 0101010000000000
          -78 400 rmoveto
          -100 vlineto
          hintmask 0101100000000000
          -77 -505 hlineto
          hintmask 0101010000000000
          77 hlineto
          hintmask 1001010000000000
          -100 vlineto
          hintmask 1001001000000000
          78 0 27 0 rlineto
          hintmask 1001010010000000
          78 hlineto
          hintmask 0101010010000000
          100 50 vlineto
          hintmask 1011000010000000
          -100 105 105 vlineto
          hintmask 1011000100000000
          -78 95 hlineto
          hintmask 0011000010000000
          78 405 hlineto
          hintmask 0101000100000000
          -78 100 hlineto
          endchar
        </CharString>
        <CharString name="R">
          -1 105 -5 105 95 105 195 105 hstemhm
          66 105 50 105 -28 105 -27 105 hintmask 10111100
          66 704 rmoveto
          -705 105 300 50 -100 vlineto
          hintmask 01111010
          77 -100 hlineto
          hintmask 01111001
          78 hlineto
          hintmask 10111001
          -100 105 105 vlineto
          hintmask 10111010
          -78 hlineto
          hintmask 01111010
          100 vlineto
          hintmask 01111100
          -77 95 hlineto
          hintmask 10111010
          77 100 hlineto
          hintmask 10111001
          78 205 hlineto
          hintmask 10111010
          -78 100 hlineto
          hintmask 00111001
          -27 -105 rmoveto
          -106 callsubr
          endchar
        </CharString>
        <CharString name="S">
          -1 105 -5 105 95 105 95 105 -5 105 hstemhm
          66 105 -28 260 -27 105 hintmask 01100100
          66 99 rmoveto
          hintmask 01100010
          77 hlineto
          hintmask 10100010
          -107 callsubr
          hintmask 01101010
          100 vlineto
          hintmask 01101001
          78 205 hlineto
          hintmask 00101010
          -78 100 hlineto
          hintmask 00101101
          -232 195 205 hlineto
          hintmask 00110001
          -100 105 105 vlineto
          hintmask 00110010
          -78 hlineto
          hintmask 00101010
          100 -260 vlineto
          hintmask 10110010
          -100 vlineto
          hintmask 10110100
          -77 -205 hlineto
          hintmask 10100010
          77 -100 hlineto
          hintmask 10100101
          233 -195 -205 hlineto
          hintmask 01100100
          100 -105 vlineto
          endchar
        </CharString>
        <CharString name="T">
          20 -21 600 105 hstem
          221 105 vstem
          66 599 rmoveto
          155 -600 105 600 155 105 -415 hlineto
          endchar
        </CharString>
        <CharString name="U">
          -1 105 600 -20 hstem
          66 105 205 105 vstem
          171 704 rmoveto
          -105 -605 77 -100 78 hlineto
          27 0 50 0 28 0 77 0 0 100 78 0 0 605 -105 0 0 -600 -205 0 rlineto
          endchar
        </CharString>
        <CharString name="V">
          -1 105 -5 105 500 -20 hstemhm
          66 105 -28 105 -27 105 -28 105 -27 105 hintmask 01110000
          171 704 rmoveto
          -105 -505 hlineto
          hintmask 01101000
          77 -100 hlineto
          hintmask 01100100
          78 hlineto
          hintmask 10100100
          -100 105 vlineto
          hintmask 01100100
          100 vlineto
          hintmask 01100010
          77 100 hlineto
          hintmask 01100001
          78 505 -105 -500 hlineto
          hintmask 01101010
          -78 hlineto
          hintmask 10101010
          -100 -50 vlineto
          hintmask 01101000
          100 vlineto
          hintmask 01110000
          -77 hlineto
          endchar
        </CharString>
        <CharString name="W">
          20 -21 100 105 500 -20 hstem
          66 105 50 105 50 105 vstem
          cntrmask 00011100
          171 704 rmoveto
          -105 -705 105 100 205 -100 105 705 -105 -500 -50 200 -105 -200 -50 hlineto
          endchar
        </CharString>
        <CharString name="X">
          -1 205 -5 105 95 105 -5 205 hstemhm
          66 105 -28 105 50 105 -27 105 hintmask 00011000
          171 704 rmoveto
          -105 -205 hlineto
          hintmask 00010100
          77 hlineto
          hintmask 01100100
          -100 78 -95 -78 vlineto
          hintmask 10000100
          -100 vlineto
          hintmask 10001000
          -77 -205 105 hlineto
          hintmask 01001000
          200 vlineto
          hintmask 01000110
          77 100 50 -100 hlineto
          hintmask 01000001
          78 hlineto
          hintmask 10000001
          -200 105 205 vlineto
          hintmask 10000010
          -78 hlineto
          hintmask 01100010
          100 -77 95 77 vlineto
          hintmask 00010010
          100 vlineto
          hintmask 00010001
          78 205 -105 hlineto
          hintmask 00100001
          -200 vlineto
          hintmask 00100110
          -78 -100 -50 100 hlineto
          hintmask 00101000
          -77 hlineto
          endchar
        </CharString>
        <CharString name="Y">
          20 -21 21 -21 400 105 -5 205 hstemhm
          66 105 -28 105 -27 105 -28 105 -27 105 hintmask 0001100000000000
          171 704 rmoveto
          -105 -205 hlineto
          hintmask 0001010000000000
          77 hlineto
          hintmask 1010010000000000
          -100 vlineto
          hintmask 1010001000000000
          78 -400 105 400 hlineto
          hintmask 0010000100000000
          77 hlineto
          hintmask 0001000100000000
          100 vlineto
          hintmask 0001000010000000
          78 205 -105 hlineto
          hintmask 0010000010000000
          -200 vlineto
          hintmask 0010010100000000
          -78 -100 -50 100 hlineto
          hintmask 0010100000000000
          -77 hlineto
          endchar
        </CharString>
        <CharString name="Z">
          -1 105 95 105 -5 105 -5 105 95 105 hstemhm
          66 105 -28 105 -27 105 -28 105 -27 105 hintmask 1001110001000000
          66 599 rmoveto
          310 -95 hlineto
          hintmask 1001100010000000
          -78 hlineto
          hintmask 1010100010000000
          -100 vlineto
          hintmask 1010100100000000
          -77 hlineto
          hintmask 1100100100000000
          -100 vlineto
          hintmask 1100101000000000
          -78 -100 hlineto
          hintmask 1100110000000000
          -77 -205 hlineto
          hintmask 1100101000000000
          77 0 rlineto
          hintmask 1100110100000000
          28 0 50 0 rlineto
          hintmask 1100101010000000
          27 0 50 0 rlineto
          hintmask 1100100101000000
          28 0 50 0 rlineto
          hintmask 1100100010000000
          27 0 rlineto
          hintmask 1100110001000000
          78 105 -310 95 hlineto
          hintmask 1100101000000000
          77 hlineto
          hintmask 1010101000000000
          100 vlineto
          hintmask 1010100100000000
          78 hlineto
          hintmask 1001100100000000
          100 vlineto
          hintmask 1001100010000000
          77 100 hlineto
          hintmask 1001110001000000
          78 205 -415 hlineto
          endchar
        </CharString>
        <CharString name="a">
          -1 105 -5 105 95 105 -5 105 hstemhm
          66 105 -28 183 -28 183 -105 105 hintmask 00010010
          298 399 rmoveto
          hintmask 01100010
          -100 vlineto
          hintmask 01100001
          78 -95 hlineto
          hintmask 01001010
          -78 hlineto
          hintmask 10011010
          -104 callsubr
          hintmask 00010100
          -28 105 rmoveto
          hintmask 01100100
          -100 vlineto
          hintmask 01101000
          -77 -305 hlineto
          hintmask 01000101
          77 hlineto
          hintmask 10000101
          -103 callsubr
          hintmask 01000101
          100 50 vlineto
          hintmask 10010101
          -100 105 505 -105 vlineto
          hintmask 00100101
          -100 -50 vlineto
          hintmask 00010100
          100 vlineto
          endchar
        </CharString>
        <CharString name="ampersand">
          -1 105 -5 105 -5 105 295 105 hstemhm
          66 105 -28 105 -27 105 -28 105 -27 105 hintmask 0001010100000000
          248 599 rmoveto
          50 -195 -50 100 hlineto
          hintmask 0011001000000000
          -27 100 rmoveto
          hintmask 0011010000000000
          -78 -300 hlineto
          hintmask 0011100000000000
          -77 hlineto
          hintmask 0101100000000000
          -205 vlineto
          hintmask 0101010000000000
          77 hlineto
          hintmask 1001010000000000
          -100 vlineto
          hintmask 1001001000000000
          78 0 rlineto
          hintmask 1001010000000000
          27 0 rlineto
          hintmask 1001001010000000
          78 hlineto
          hintmask 0101001010000000
          100 50 vlineto
          hintmask 1011000010000000
          -100 105 105 vlineto
          hintmask 1011000100000000
          -78 95 hlineto
          hintmask 0011001010000000
          78 105 -105 hlineto
          hintmask 0101001010000000
          -100 -50 195 vlineto
          hintmask 0011000100000000
          77 205 hlineto
          hintmask 0011001000000000
          -77 100 -105 hlineto
          hintmask 1011101000000000
          -50 -405 rmoveto
          50 -100 hlineto
          hintmask 1011100100000000
          77 -95 -127 hlineto
          endchar
        </CharString>
        <CharString name="asciicircum">
          399 105 -5 105 -5 105 hstemhm
          66 105 -28 105 -27 105 -28 105 -27 105 hintmask 10010000
          66 399 rmoveto
          105 hlineto
          hintmask 01010000
          100 vlineto
          hintmask 01001010
          77 hlineto
          hintmask 00101010
          100 50 vlineto
          hintmask 01000010
          -100 vlineto
          hintmask 01000001
          78 hlineto
          hintmask 10000001
          -100 105 105 vlineto
          hintmask 10000010
          -78 hlineto
          hintmask 01000010
          100 vlineto
          hintmask 01000100
          -77 hlineto
          hintmask 00100100
          100 -105 vlineto
          hintmask 01000100
          -100 vlineto
          hintmask 01001000
          -78 hlineto
          hintmask 10001000
          -100 vlineto
          hintmask 10010000
          -77 hlineto
          endchar
        </CharString>
        <CharString name="asciitilde">
          399 105 -5 105 -5 105 hstemhm
          66 105 -28 105 -27 105 -28 105 -27 105 hintmask 01010100
          66 499 rmoveto
          105 hlineto
          hintmask 00110100
          100 50 vlineto
          hintmask 01000100
          -100 vlineto
          hintmask 01000010
          77 hlineto
          hintmask 10000010
          -100 105 vlineto
          hintmask 01000010
          100 vlineto
          hintmask 01000101
          78 105 -105 hlineto
          hintmask 10000101
          -100 -50 vlineto
          hintmask 01000100
          100 vlineto
          hintmask 01001000
          -78 hlineto
          hintmask 00101000
          100 -105 vlineto
          hintmask 01001000
          -100 vlineto
          hintmask 01010100
          -77 hlineto
          endchar
        </CharString>
        <CharString name="asterisk">
          199 105 -5 105 -5 105 hstemhm
          66 105 50 105 50 105 cntrmask 00011100
          hintmask 10111100
          66 399 rmoveto
          77 -95 -77 -105 105 hlineto
          hintmask 01011100
          100 50 -200 105 200 50 vlineto
          hintmask 10111100
          -100 105 105 -78 95 78 105 -105 vlineto
          hintmask 01011100
          -100 -50 200 -105 -200 -50 vlineto
          hintmask 10111100
          100 -105 vlineto
          endchar
        </CharString>
        <CharString name="at">
          -1 105 195 105 95 105 -5 105 hstemhm
          66 105 -28 105 -27 182 -182 105 50 105 hintmask 1101000110000000
          376 599 rmoveto
          -195 -50 100 vlineto
          hintmask 1101010010000000
          -78 95 hlineto
          hintmask 1101001000000000
          -27 105 rmoveto
          hintmask 1110001000000000
          -100 vlineto
          hintmask 1110010000000000
          -78 -100 hlineto
          hintmask 1110100000000000
          -77 -405 hlineto
          hintmask 1110010000000000
          77 -100 hlineto
          hintmask 1110000100000000
          78 0 rlineto
          hintmask 1110010000000000
          27 0 50 0 rlineto
          hintmask 1110000110000000
          28 0 50 0 rlineto
          hintmask 1110001000000000
          27 0 rlineto
          hintmask 1110100110000000
          78 105 -310 395 50 -300 105 100 155 305 hlineto
          hintmask 1110001000000000
          -78 hlineto
          hintmask 1101001000000000
          100 vlineto
          endchar
        </CharString>
        <CharString name="b">
          -1 105 -5 105 95 105 -5 105 200 -20 hstemhm
          66 182 -182 105 50 182 -27 105 hintmask 1000101100000000
          171 704 rmoveto
          -105 -705 105 hlineto
          hintmask 0100101100000000
          100 50 vlineto
          hintmask 1000100100000000
          -100 77 vlineto
          28 0 77 0 rlineto
          hintmask 0110100100000000
          100 vlineto
          hintmask 0110100010000000
          78 305 hlineto
          hintmask 0010101100000000
          -78 hlineto
          hintmask 0001101100000000
          100 -182 vlineto
          hintmask 1010101100000000
          -100 -50 vlineto
          hintmask 1001110010000000
          205 -5 rmoveto
          -295 -128 vlineto
          hintmask 0110110000000000
          100 vlineto
          hintmask 0110101000000000
          -77 95 hlineto
          hintmask 0010110010000000
          77 hlineto
          hintmask 1001110010000000
          100 vlineto
          endchar
        </CharString>
        <CharString name="backslash">
          20 -21 21 -21 200 105 -5 105 -5 105 200 -20 hstemhm
          66 105 -28 105 -27 105 -28 105 -27 105 hintmask 0000111000000000
          171 704 rmoveto
          -105 -205 hlineto
          hintmask 0000110100000000
          77 -100 hlineto
          hintmask 0000110010000000
          78 hlineto
          hintmask 0001010010000000
          -100 vlineto
          hintmask 0001010001000000
          77 hlineto
          hintmask 1010010001000000
          -100 vlineto
          hintmask 1010010000100000
          78 -200 105 205 hlineto
          hintmask 0010010001000000
          -78 100 hlineto
          hintmask 0010010010000000
          -77 hlineto
          hintmask 0001010010000000
          100 vlineto
          hintmask 0001010100000000
          -78 hlineto
          hintmask 0000110100000000
          100 vlineto
          hintmask 0000111000000000
          -77 hlineto
          endchar
        </CharString>
        <CharString name="bar">
          20 -21 hstem
          221 105 vstem
          326 704 rmoveto
          -105 -305 105 hlineto
          -95 vmoveto
          -105 -305 105 hlineto
          endchar
        </CharString>
        <CharString name="braceleft">
          -1 105 195 105 195 105 hstemhm
          221 105 -28 183 cntrmask 11100000
          hintmask 11110000
          66 299 rmoveto
          155 -200 hlineto
          hintmask 11101000
          77 -100 78 hlineto
          27 0 78 0 0 105 rlineto
          hintmask 11110000
          -155 200 -78 95 78 200 hlineto
          hintmask 11101000
          155 105 -183 -100 hlineto
          hintmask 11110000
          -77 -200 -155 hlineto
          endchar
        </CharString>
        <CharString name="braceright">
          -1 105 195 105 195 105 hstemhm
          66 182 -27 105 cntrmask 11100000
          hintmask 11110000
          66 599 rmoveto
          hintmask 11101000
          155 -200 77 -95 -77 -200 hlineto
          hintmask 11110000
          -155 -105 77 hlineto
          28 0 77 0 0 100 rlineto
          hintmask 11101000
          78 200 155 105 -155 200 hlineto
          hintmask 11110000
          -78 100 -182 hlineto
          endchar
        </CharString>
        <CharString name="bracketleft">
          -1 105 495 105 hstemhm
          221 260 -260 105 hintmask 11100000
          221 704 rmoveto
          -705 77 vlineto
          hintmask 11010000
          28 0 50 0 27 0 rlineto
          hintmask 11100000
          78 105 hlineto
          hintmask 11010000
          -155 495 hlineto
          hintmask 11100000
          155 105 hlineto
          endchar
        </CharString>
        <CharString name="bracketright">
          -1 105 495 105 hstemhm
          66 260 -105 105 hintmask 11100000
          66 599 rmoveto
          hintmask 11010000
          155 -495 hlineto
          hintmask 11100000
          -155 -105 77 hlineto
          28 0 rlineto
          hintmask 11010000
          50 0 27 0 rlineto
          hintmask 11100000
          78 705 -260 hlineto
          endchar
        </CharString>
        <CharString name="c">
          -1 105 295 105 hstem
          66 105 vstem
          481 399 rmoveto
          105 -338 -100 -77 -305 77 -100 78 vlineto
          27 0 50 0 28 0 50 0 27 0 78 0 0 105 -310 0 0 295 rlineto
          endchar
        </CharString>
        <CharString name="colon">
          99 105 195 105 hstem
          221 105 vstem
          221 399 rmoveto
          105 105 -105 hlineto
          -405 vmoveto
          105 105 -105 hlineto
          endchar
        </CharString>
        <CharString name="comma">
          -201 105 hstemhm
          143 105 -27 105 hintmask 11000000
          143 -201 rmoveto
          105 100 hlineto
          hintmask 10100000
          78 205 -105 -200 hlineto
          hintmask 11000000
          -78 hlineto
          endchar
        </CharString>
        <CharString name="d">
          -1 105 -5 105 95 105 -5 105 hstemhm
          66 105 -28 183 -28 183 -105 105 hintmask 00100101
          481 704 rmoveto
          -105 -300 -50 hlineto
          hintmask 00010100
          100 -183 vlineto
          hintmask 01100100
          -100 vlineto
          hintmask 01101000
          -77 -305 hlineto
          hintmask 01000101
          77 hlineto
          hintmask 10000101
          -103 callsubr
          hintmask 01000101
          100 50 vlineto
          hintmask 10100101
          -100 105 vlineto
          hintmask 00010010
          -183 400 rmoveto
          hintmask 01100010
          -100 vlineto
          hintmask 01100001
          78 -95 hlineto
          hintmask 01001010
          -78 hlineto
          hintmask 10011010
          -104 callsubr
          endchar
        </CharString>
        <CharString name="dollar">
          20 -21 100 105 -5 105 -5 105 -5 105 -5 105 hstemhm
          66 105 50 105 50 105 cntrmask 0000001110000000
          hintmask 1000101110000000
          66 399 rmoveto
          77 hlineto
          hintmask 1101001110000000
          -100 78 -95 -155 -105 155 -100 105 100 77 vlineto
          hintmask 1010001110000000
          100 78 105 -78 vlineto
          hintmask 1001011110000000
          100 -77 95 155 105 -155 100 -105 -100 -78 vlineto
          hintmask 1000101110000000
          -100 -77 vlineto
          hintmask 1001011110000000
          105 -5 rmoveto
          50 -95 -50 hlineto
          155 -105 rmoveto
          50 hlineto
          hintmask 1101001110000000
          -95 -50 vlineto
          endchar
        </CharString>
        <CharString name="e">
          -1 105 95 105 95 105 hstemhm
          66 105 -28 260 -27 105 cntrmask 11100000
          hintmask 11110100
          376 399 rmoveto
          -95 -205 95 vlineto
          hintmask 11101000
          -28 105 rmoveto
          -100 vlineto
          hintmask 11110000
          -77 -305 hlineto
          hintmask 11101000
          77 -100 78 hlineto
          27 0 50 0 28 0 77 0 0 105 rlineto
          hintmask 11110100
          -232 95 310 205 hlineto
          hintmask 11101000
          -78 100 hlineto
          endchar
        </CharString>
        <CharString name="eight">
          -1 105 -5 205 -5 105 -5 205 -5 105 hstemhm
          66 105 -28 260 -27 105 hintmask 00101101
          376 599 rmoveto
          -106 callsubr
          hintmask 00001010
          -28 105 rmoveto
          hintmask 01010010
          -100 vlineto
          hintmask 01010100
          -77 -205 hlineto
          hintmask 01010010
          77 -95 hlineto
          hintmask 01000100
          -77 -205 hlineto
          hintmask 01000010
          77 hlineto
          hintmask 10000010
          -107 callsubr
          hintmask 01010010
          100 vlineto
          hintmask 01010001
          78 205 hlineto
          hintmask 01010010
          -78 95 hlineto
          hintmask 00010001
          78 205 hlineto
          hintmask 00010010
          -78 hlineto
          hintmask 00001010
          100 vlineto
          hintmask 10100101
          -27 -405 rmoveto
          -106 callsubr
          endchar
        </CharString>
        <CharString name="equal">
          199 105 95 105 hstem
          66 399 rmoveto
          415 105 -415 hlineto
          -305 vmoveto
          415 105 -415 hlineto
          endchar
        </CharString>
        <CharString name="exclam">
          -1 105 600 -20 hstem
          221 105 vstem
          221 -1 rmoveto
          105 105 -105 hlineto
          105 600 rmoveto
          -105 -505 105 hlineto
          endchar
        </CharString>
        <CharString name="f">
          20 -21 21 -21 300 105 95 105 -5 105 hstemhm
          143 105 -27 105 -28 105 hintmask 10101100
          66 299 rmoveto
          77 -300 105 300 hlineto
          hintmask 00101010
          78 105 hlineto
          hintmask 00101101
          -78 100 hlineto
          95 50 vlineto
          hintmask 00110001
          -100 105 105 vlineto
          hintmask 00110010
          -77 hlineto
          hintmask 00101010
          100 -105 vlineto
          hintmask 10110010
          -100 vlineto
          hintmask 10110100
          -78 -200 -77 hlineto
          endchar
        </CharString>
        <CharString name="five">
          -1 105 -5 105 195 105 95 105 hstemhm
          66 105 205 105 hintmask 01111100
          66 99 rmoveto
          77 hlineto
          hintmask 10111100
          -107 callsubr
          hintmask 01111100
          100 78 305 -78 100 -232 95 310 105 -415 -305 310 vlineto
          hintmask 10111100
          -295 -205 vlineto
          hintmask 01111100
          100 -105 vlineto
          endchar
        </CharString>
        <CharString name="four">
          20 -21 200 105 95 105 -5 105 hstemhm
          66 105 -28 105 -27 182 -105 105 hintmask 11010001
          403 704 rmoveto
          -105 -100 hlineto
          hintmask 11010010
          -77 hlineto
          hintmask 11100010
          -100 vlineto
          hintmask 11100100
          -78 -100 hlineto
          hintmask 11011001
          -77 -205 232 -200 105 200 78 105 -78 hlineto
          hintmask 11010101
          -155 195 rmoveto
          50 -195 hlineto
          hintmask 11101000
          -127 95 hlineto
          hintmask 11100101
          77 hlineto
          endchar
        </CharString>
        <CharString name="g">
          -201 105 95 105 -5 105 95 105 -5 105 hstemhm
          66 105 -28 183 -28 183 -105 105 hintmask 1000101010000000
          143 -201 rmoveto
          260 100 78 605 -105 hlineto
          hintmask 1001001010000000
          -100 -50 vlineto
          hintmask 1000101000000000
          100 -183 vlineto
          hintmask 1011001000000000
          -100 vlineto
          hintmask 1011010000000000
          -77 -305 hlineto
          hintmask 1010001010000000
          77 hlineto
          hintmask 1100001010000000
          -103 callsubr
          hintmask 1010101010000000
          100 50 -195 -233 vlineto
          hintmask 1000100100000000
          155 495 rmoveto
          hintmask 1011000100000000
          -100 vlineto
          hintmask 1011000010000000
          78 -95 hlineto
          hintmask 1010010100000000
          -78 hlineto
          hintmask 1100110100000000
          -104 callsubr
          endchar
        </CharString>
        <CharString name="grave">
          399 105 -5 105 -5 105 hstemhm
          143 105 -27 105 -28 105 hintmask 00110000
          143 599 rmoveto
          hintmask 00101000
          78 hlineto
          hintmask 01001000
          -100 vlineto
          hintmask 01000100
          77 hlineto
          hintmask 10000100
          -100 105 105 vlineto
          hintmask 10001000
          -77 hlineto
          hintmask 01001000
          100 vlineto
          hintmask 01010000
          -78 hlineto
          hintmask 00110000
          100 -105 vlineto
          endchar
        </CharString>
        <CharString name="greater">
          -1 105 -5 105 -5 105 -5 105 -5 105 -5 105 -5 105 hstemhm
          66 105 -28 105 -27 105 -28 105 hintmask 0000001100000000
          66 599 rmoveto
          hintmask 0000001010000000
          77 hlineto
          hintmask 0000010010000000
          -100 vlineto
          hintmask 0000010001000000
          78 hlineto
          hintmask 0010100001000000
          -100 vlineto
          hintmask 0010100000100000
          77 -95 hlineto
          hintmask 0010000001000000
          -77 hlineto
          hintmask 0100000001000000
          -100 vlineto
          hintmask 0100000010000000
          -78 hlineto
          hintmask 1000000010000000
          -100 vlineto
          hintmask 1000000100000000
          -77 -105 105 hlineto
          hintmask 0100000100000000
          100 vlineto
          hintmask 0100000010000000
          77 hlineto
          hintmask 0010000010000000
          100 vlineto
          hintmask 0010000001000000
          78 hlineto
          hintmask 0001000001000000
          100 vlineto
          hintmask 0001000000100000
          77 105 hlineto
          hintmask 0001000001000000
          -77 hlineto
          hintmask 0000100001000000
          100 vlineto
          hintmask 0000100010000000
          -78 hlineto
          hintmask 0000010010000000
          100 vlineto
          hintmask 0000010100000000
          -77 hlineto
          hintmask 0000001100000000
          100 -105 vlineto
          endchar
        </CharString>
        <CharString name="h">
          20 -21 300 105 -5 105 hstemhm
          66 182 -182 105 50 182 -27 105 hintmask 11001000
          171 704 rmoveto
          -105 -705 105 300 hlineto
          hintmask 11010010
          77 hlineto
          hintmask 10110010
          100 128 -400 105 vlineto
          hintmask 11000010
          405 vlineto
          hintmask 11001100
          -78 hlineto
          hintmask 10101100
          100 -182 vlineto
          hintmask 11001100
          -100 -50 vlineto
          endchar
        </CharString>
        <CharString name="hyphen">
          299 105 hstem
          66 299 rmoveto
          415 105 -415 hlineto
          endchar
        </CharString>
        <CharString name="i">
          -1 105 295 105 95 105 hstemhm
          143 183 -105 105 hintmask 11101000
          221 599 rmoveto
          105 105 -105 hlineto
          hintmask 11110000
          -78 -305 rmoveto
          hintmask 11101000
          78 -295 hlineto
          hintmask 11110000
          -78 -105 hlineto
          hintmask 11101000
          -102 callsubr
          hintmask 11110000
          400 -183 vlineto
          endchar
        </CharString>
        <CharString name="j">
          -201 105 -5 105 500 -20 115 105 hstemhm
          143 105 -27 182 -27 105 hintmask 00110010
          376 599 rmoveto
          105 105 -105 hlineto
          hintmask 01111000
          -233 -805 rmoveto
          hintmask 01110100
          78 hlineto
          hintmask 10110100
          -100 182 vlineto
          hintmask 01110100
          100 vlineto
          hintmask 01111010
          78 605 -105 hlineto
          hintmask 10111010
          -600 -128 vlineto
          hintmask 01111000
          100 -105 vlineto
          endchar
        </CharString>
        <CharString name="k">
          -1 105 -5 105 -5 105 -5 105 -5 105 200 -20 hstemhm
          66 105 50 105 -28 105 hintmask 1010011100000000
          171 704 rmoveto
          -105 -705 105 200 50 hlineto
          hintmask 0100011100000000
          -100 vlineto
          hintmask 0100011010000000
          77 hlineto
          hintmask 1000011010000000
          -100 105 105 vlineto
          hintmask 1000011100000000
          -77 hlineto
          hintmask 0101011100000000
          100 -78 95 78 vlineto
          hintmask 0000111100000000
          100 vlineto
          hintmask 0000111010000000
          77 105 -105 hlineto
          hintmask 0001011010000000
          -100 vlineto
          hintmask 0001011100000000
          -77 hlineto
          hintmask 1010011100000000
          -100 -50 vlineto
          endchar
        </CharString>
        <CharString name="l">
          -1 105 495 105 hstemhm
          143 183 -105 105 hintmask 11100000
          143 599 rmoveto
          hintmask 11010000
          78 -495 hlineto
          hintmask 11100000
          -78 -105 hlineto
          hintmask 11010000
          -102 callsubr
          hintmask 11100000
          600 -183 vlineto
          endchar
        </CharString>
        <CharString name="less">
          -1 105 -5 105 -5 105 -5 105 -5 105 -5 105 -5 105 hstemhm
          143 105 -27 105 -28 105 -27 105 hintmask 0001000100000000
          143 299 rmoveto
          hintmask 0001000010000000
          78 hlineto
          hintmask 0010000010000000
          -100 vlineto
          hintmask 0010000001000000
          77 hlineto
          hintmask 0100000001000000
          -100 vlineto
          hintmask 0100000000100000
          78 hlineto
          hintmask 1000000000100000
          -100 105 105 vlineto
          hintmask 1000000001000000
          -78 hlineto
          hintmask 0100000001000000
          100 vlineto
          hintmask 0100000010000000
          -77 hlineto
          hintmask 0010100010000000
          100 vlineto
          hintmask 0010100100000000
          -78 95 hlineto
          hintmask 0000100010000000
          78 hlineto
          hintmask 0000010010000000
          100 vlineto
          hintmask 0000010001000000
          77 hlineto
          hintmask 0000001001000000
          100 vlineto
          hintmask 0000001000100000
          78 105 -105 hlineto
          hintmask 0000010000100000
          -100 vlineto
          hintmask 0000010001000000
          -78 hlineto
          hintmask 0000100001000000
          -100 vlineto
          hintmask 0000100010000000
          -77 hlineto
          hintmask 0001000010000000
          -100 vlineto
          hintmask 0001000100000000
          -78 hlineto
          endchar
        </CharString>
        <CharString name="m">
          20 -21 21 -21 400 105 hstemhm
          66 182 -182 105 50 105 -28 105 -27 105 hintmask 10110000
          66 504 rmoveto
          hintmask 10101101
          -505 105 400 50 -400 105 400 50 -400 105 405 vlineto
          hintmask 10110010
          -78 100 -105 -100 -50 100 hlineto
          endchar
        </CharString>
        <CharString name="n">
          20 -21 21 -21 300 105 -5 105 hstemhm
          66 182 -182 105 50 182 -27 105 hintmask 10010001
          376 399 rmoveto
          -400 105 vlineto
          hintmask 00100001
          405 vlineto
          hintmask 00100110
          -78 hlineto
          hintmask 00010110
          100 -182 vlineto
          hintmask 00100110
          -100 -50 vlineto
          hintmask 10010100
          100 -105 -505 105 vlineto
          hintmask 00100100
          300 vlineto
          hintmask 00101001
          77 hlineto
          hintmask 10011001
          100 vlineto
          endchar
        </CharString>
        <CharString name="nine">
          -1 105 -5 105 95 105 195 105 hstemhm
          66 105 -28 183 -28 105 -27 105 hintmask 10110100
          143 -1 rmoveto
          78 0 27 0 78 0 rlineto
          hintmask 01110100
          100 vlineto
          hintmask 01110010
          77 100 hlineto
          hintmask 01110001
          78 405 hlineto
          hintmask 01110010
          -78 100 hlineto
          hintmask 01110100
          -260 -100 hlineto
          hintmask 01111000
          -77 -205 hlineto
          hintmask 01110101
          77 -100 233 -95 hlineto
          hintmask 01110010
          -78 hlineto
          hintmask 10110010
          -100 vlineto
          hintmask 10110100
          -155 hlineto
          hintmask 00111001
          233 495 rmoveto
          -106 callsubr
          endchar
        </CharString>
        <CharString name="numbersign">
          20 -21 21 -21 200 105 95 105 200 -20 hstemhm
          143 105 50 105 hintmask 10111110
          66 399 rmoveto
          77 -95 -77 -105 77 -200 105 200 50 -200 105 200 78 105 -78 hlineto
          95 78 105 -78 200 -105 -200 -50 200 -105 -200 -77 vlineto
          182 -105 rmoveto
          50 -95 -50 hlineto
          endchar
        </CharString>
        <CharString name="o">
          -1 105 295 105 hstemhm
          66 105 -28 260 -27 105 hintmask 11101000
          376 399 rmoveto
          -295 -205 295 vlineto
          hintmask 11010000
          -28 105 rmoveto
          -100 vlineto
          hintmask 11100000
          -77 -305 hlineto
          hintmask 11010000
          -105 callsubr
          hintmask 11001000
          78 305 hlineto
          hintmask 11010000
          -78 100 hlineto
          endchar
        </CharString>
        <CharString name="one">
          -1 105 395 105 100 -20 hstemhm
          143 183 -105 105 hintmask 11110000
          143 499 rmoveto
          hintmask 11101000
          78 -395 hlineto
          hintmask 11110000
          -78 -105 hlineto
          hintmask 11101000
          78 0 27 0 50 0 28 0 77 0 0 105 -77 0 0 600 -105 0 0 -100 rlineto
          hintmask 11110000
          -78 hlineto
          endchar
        </CharString>
        <CharString name="p">
          -180 -21 200 105 -5 105 95 105 -5 105 hstemhm
          66 182 -182 105 50 182 -27 105 hintmask 1100110010000000
          376 399 rmoveto
          -295 -128 vlineto
          hintmask 1011010000000000
          100 vlineto
          hintmask 1011001000000000
          -77 95 hlineto
          hintmask 1001010010000000
          77 hlineto
          hintmask 1100110010000000
          100 vlineto
          hintmask 1000101100000000
          -27 105 rmoveto
          hintmask 1001001100000000
          -100 -50 vlineto
          hintmask 1010101100000000
          100 -105 -705 105 300 50 vlineto
          hintmask 1100000100000000
          -100 77 vlineto
          28 0 77 0 rlineto
          hintmask 1011000100000000
          100 vlineto
          hintmask 1011000010000000
          78 305 hlineto
          hintmask 1001001100000000
          -78 hlineto
          hintmask 1000101100000000
          100 vlineto
          endchar
        </CharString>
        <CharString name="parenleft">
          -1 105 -5 105 295 105 -5 105 hstemhm
          143 105 -27 105 -28 105 hintmask 00010100
          326 599 rmoveto
          hintmask 00010010
          77 105 -105 hlineto
          hintmask 01100010
          -100 vlineto
          hintmask 01100100
          -77 -100 hlineto
          hintmask 01001000
          -78 -305 hlineto
          hintmask 01000100
          78 -100 hlineto
          hintmask 01000010
          77 hlineto
          hintmask 10000010
          -100 105 105 vlineto
          hintmask 10000100
          -77 hlineto
          hintmask 01100100
          100 vlineto
          hintmask 01101000
          -78 200 hlineto
          95 vlineto
          hintmask 00100100
          78 hlineto
          endchar
        </CharString>
        <CharString name="parenright">
          -1 105 -5 105 295 105 -5 105 hstemhm
          143 105 -27 105 -28 105 hintmask 00011000
          143 599 rmoveto
          hintmask 00010100
          78 hlineto
          hintmask 01100100
          -100 vlineto
          hintmask 01100010
          77 -295 hlineto
          hintmask 01000100
          -77 hlineto
          hintmask 10000100
          -100 vlineto
          hintmask 10001000
          -78 -105 105 hlineto
          hintmask 01101000
          100 vlineto
          hintmask 01100100
          78 100 hlineto
          hintmask 00100010
          77 305 hlineto
          hintmask 00100100
          -77 100 hlineto
          hintmask 00101000
          -78 hlineto
          hintmask 00011000
          100 -105 vlineto
          endchar
        </CharString>
        <CharString name="percent">
          -1 205 -5 105 -5 105 -5 105 -5 205 hstemhm
          66 105 -28 105 -27 105 -28 105 -27 105 hintmask 0000110000000000
          66 704 rmoveto
          -205 vlineto
          hintmask 0000101000000000
          77 0 105 0 0 205 rlineto
          hintmask 0000100001000000
          233 hmoveto
          -105 hlineto
          hintmask 0001000001000000
          -200 vlineto
          hintmask 0001000010000000
          -78 hlineto
          hintmask 0010000010000000
          -100 vlineto
          hintmask 0010000100000000
          -77 hlineto
          hintmask 0100000100000000
          -100 vlineto
          hintmask 0100001000000000
          -78 hlineto
          hintmask 1000001000000000
          -100 vlineto
          hintmask 1000010000000000
          -77 -205 105 hlineto
          hintmask 0100010000000000
          200 vlineto
          hintmask 0100001000000000
          77 hlineto
          hintmask 0010001000000000
          100 vlineto
          hintmask 0010000100000000
          78 hlineto
          hintmask 0001000100000000
          100 vlineto
          hintmask 0001000010000000
          77 hlineto
          hintmask 0000100010000000
          100 vlineto
          hintmask 0000100001000000
          78 hlineto
          hintmask 1000000010000000
          -183 -295 rmoveto
          -205 vlineto
          hintmask 1000000001000000
          78 0 rlineto
          hintmask 1000000010000000
          27 0 rlineto
          hintmask 1000000001000000
          78 205 hlineto
          endchar
        </CharString>
        <CharString name="period">
          -1 105 hstem
          221 105 vstem
          221 -1 rmoveto
          105 105 -105 hlineto
          endchar
        </CharString>
        <CharString name="plus">
          299 105 hstem
          221 105 vstem
          66 299 rmoveto
          155 -200 105 200 155 105 -155 200 -105 -200 -155 hlineto
          endchar
        </CharString>
        <CharString name="q">
          -1 105 -5 105 95 105 -5 105 hstemhm
          66 105 -28 183 -28 183 -105 105 hintmask 00010010
          298 399 rmoveto
          hintmask 01100010
          -100 vlineto
          hintmask 01100001
          78 -95 hlineto
          hintmask 01001010
          -78 hlineto
          hintmask 10011010
          -104 callsubr
          hintmask 00010100
          -28 105 rmoveto
          hintmask 01100100
          -100 vlineto
          hintmask 01101000
          -77 -305 hlineto
          hintmask 01000101
          77 hlineto
          hintmask 10000101
          -103 callsubr
          hintmask 01010101
          100 50 -300 105 705 -105 vlineto
          hintmask 00100101
          -100 -50 vlineto
          hintmask 00010100
          100 vlineto
          endchar
        </CharString>
        <CharString name="question">
          -1 105 95 105 -5 105 95 105 -5 105 hstemhm
          66 105 50 105 -28 105 -27 105 hintmask 1001010010000000
          66 499 rmoveto
          105 hlineto
          hintmask 1010110010000000
          100 205 -195 vlineto
          hintmask 1010010100000000
          -78 hlineto
          hintmask 1100010100000000
          -100 vlineto
          hintmask 1100011000000000
          -77 -105 105 hlineto
          hintmask 1011011000000000
          100 vlineto
          hintmask 1011010100000000
          77 100 hlineto
          hintmask 1001010010000000
          78 205 hlineto
          hintmask 1001010100000000
          -78 hlineto
          hintmask 1000110100000000
          100 -260 vlineto
          hintmask 1001010010000000
          -100 -77 vlineto
          hintmask 1000011000000000
          155 -605 rmoveto
          105 105 -105 hlineto
          endchar
        </CharString>
        <CharString name="quotedbl">
          399 305 hstem
          143 105 50 105 vstem
          248 704 rmoveto
          -105 -305 105 hlineto
          155 305 rmoveto
          -105 -305 105 hlineto
          endchar
        </CharString>
        <CharString name="quotesingle">
          399 105 -5 105 -5 105 hstemhm
          143 105 -27 105 -28 105 hintmask 10010000
          143 399 rmoveto
          105 hlineto
          hintmask 01010000
          100 vlineto
          hintmask 01001000
          78 hlineto
          hintmask 00101000
          100 vlineto
          hintmask 00100100
          77 105 -105 hlineto
          hintmask 01000100
          -100 vlineto
          hintmask 01001000
          -77 hlineto
          hintmask 10001000
          -100 vlineto
          hintmask 10010000
          -78 hlineto
          endchar
        </CharString>
        <CharString name="r">
          20 -21 21 -21 300 105 -5 105 hstemhm
          66 182 -182 105 50 182 -27 105 hintmask 00010001
          376 399 rmoveto
          hintmask 00100001
          -100 105 105 vlineto
          hintmask 00100110
          -78 hlineto
          hintmask 00010110
          100 -182 vlineto
          hintmask 00100110
          -100 -50 vlineto
          hintmask 10010100
          100 -105 -505 105 vlineto
          hintmask 00100100
          300 vlineto
          hintmask 00101001
          77 hlineto
          hintmask 00011001
          100 vlineto
          endchar
        </CharString>
        <CharString name="s">
          -1 105 -5 105 -5 105 -5 105 -5 105 hstemhm
          66 105 205 105 hintmask 00010110
          66 299 rmoveto
          77 hlineto
          hintmask 10100110
          -100 233 -95 -310 -105 77 vlineto
          28 0 50 0 27 0 50 0 28 0 77 0 rlineto
          hintmask 01000110
          100 78 105 -78 vlineto
          hintmask 00101110
          100 -232 95 310 105 -338 vlineto
          hintmask 00010110
          -100 -77 vlineto
          endchar
        </CharString>
        <CharString name="semicolon">
          -101 105 395 105 hstemhm
          143 105 -27 105 hintmask 11010000
          221 399 rmoveto
          105 105 -105 hlineto
          hintmask 11100000
          -78 -605 rmoveto
          105 100 hlineto
          hintmask 11010000
          78 205 -105 -200 hlineto
          hintmask 11100000
          -78 hlineto
          endchar
        </CharString>
        <CharString name="seven">
          20 -21 21 -21 300 105 -5 105 95 105 hstemhm
          143 105 -27 105 -28 105 -27 105 hintmask 0001100010000000
          66 599 rmoveto
          310 -95 hlineto
          hintmask 0001100100000000
          -78 hlineto
          hintmask 1010100100000000
          -100 vlineto
          hintmask 1010101000000000
          -77 -100 hlineto
          hintmask 1010110000000000
          -78 -305 105 205 hlineto
          95 vlineto
          hintmask 0010101000000000
          78 hlineto
          hintmask 0001101000000000
          100 vlineto
          hintmask 0001100100000000
          77 100 hlineto
          hintmask 0001100010000000
          78 205 -415 hlineto
          endchar
        </CharString>
        <CharString name="six">
          -1 105 195 105 95 105 -5 105 hstemhm
          66 105 -28 105 -27 182 -27 105 hintmask 11010010
          403 599 rmoveto
          105 -182 vlineto
          hintmask 11100010
          -100 vlineto
          hintmask 11100100
          -78 -100 hlineto
          hintmask 11101000
          -77 -405 hlineto
          hintmask 11100100
          77 -100 hlineto
          hintmask 11100010
          78 0 rlineto
          hintmask 11100100
          27 0 50 0 28 0 rlineto
          hintmask 11100010
          77 100 hlineto
          hintmask 11100001
          78 205 hlineto
          hintmask 11101010
          -78 100 -232 95 hlineto
          hintmask 11100100
          77 hlineto
          hintmask 11010100
          100 vlineto
          hintmask 11001001
          128 -300 rmoveto
          -106 callsubr
          endchar
        </CharString>
        <CharString name="slash">
          20 -21 200 105 -5 105 -5 105 200 -20 hstemhm
          66 105 -28 105 -27 105 -28 105 -27 105 hintmask 1001100001000000
          481 704 rmoveto
          -105 -200 hlineto
          hintmask 1001100010000000
          -78 hlineto
          hintmask 1010100010000000
          -100 vlineto
          hintmask 1010100100000000
          -77 hlineto
          hintmask 1100100100000000
          -100 vlineto
          hintmask 1100101000000000
          -78 -100 hlineto
          hintmask 1100110000000000
          -77 -205 105 200 hlineto
          hintmask 1100101000000000
          77 hlineto
          hintmask 1010101000000000
          100 vlineto
          hintmask 1010100100000000
          78 hlineto
          hintmask 1001100100000000
          100 vlineto
          hintmask 1001100010000000
          77 100 hlineto
          hintmask 1001100001000000
          78 hlineto
          endchar
        </CharString>
        <CharString name="space">
          107 endchar
        </CharString>
        <CharString name="t">
          -1 105 -5 105 195 105 200 -20 hstemhm
          143 105 -27 105 -28 105 hintmask 01111000
          66 399 rmoveto
          77 -300 hlineto
          hintmask 01110100
          78 hlineto
          hintmask 10110100
          -100 105 vlineto
          hintmask 01110100
          100 vlineto
          hintmask 01111010
          77 105 -105 hlineto
          hintmask 10111010
          -100 -50 295 vlineto
          hintmask 01110100
          78 105 hlineto
          hintmask 01111000
          -78 200 -105 -200 -77 hlineto
          endchar
        </CharString>
        <CharString name="three">
          -1 105 -5 105 95 105 95 105 -5 105 hstemhm
          66 105 -28 260 -27 105 hintmask 00110101
          66 499 rmoveto
          105 hlineto
          hintmask 10101101
          100 205 -195 -155 -105 155 -195 -205 vlineto
          hintmask 01100100
          100 -105 -105 vlineto
          hintmask 01100010
          77 hlineto
          hintmask 10100010
          -107 callsubr
          hintmask 01110010
          100 vlineto
          hintmask 01110001
          78 205 hlineto
          hintmask 00110010
          -78 95 hlineto
          hintmask 00110001
          78 205 hlineto
          hintmask 00110010
          -78 hlineto
          hintmask 00101010
          100 -260 vlineto
          hintmask 00110010
          -100 vlineto
          hintmask 00110101
          -77 hlineto
          endchar
        </CharString>
        <CharString name="two">
          -1 105 195 105 95 105 -5 105 hstemhm
          66 105 -28 260 -27 105 hintmask 11101010
          66 499 rmoveto
          105 hlineto
          hintmask 11011010
          100 205 -195 vlineto
          hintmask 11100100
          -233 -100 hlineto
          hintmask 11101000
          -77 -305 hlineto
          hintmask 11100100
          77 0 rlineto
          hintmask 11101010
          28 0 50 0 27 0 50 0 28 0 50 0 rlineto
          hintmask 11100100
          27 0 rlineto
          hintmask 11101010
          78 105 -310 195 hlineto
          hintmask 11100100
          232 100 hlineto
          hintmask 11100010
          78 205 hlineto
          hintmask 11100100
          -78 hlineto
          hintmask 11010100
          100 -260 vlineto
          hintmask 11100100
          -100 vlineto
          hintmask 11101010
          -77 hlineto
          endchar
        </CharString>
        <CharString name="u">
          -1 105 -5 105 300 -20 hstemhm
          66 105 -28 183 -28 183 -105 105 hintmask 01110000
          171 504 rmoveto
          -105 -405 hlineto
          hintmask 01101010
          77 hlineto
          hintmask 10101010
          -103 callsubr
          hintmask 01101010
          100 50 vlineto
          hintmask 10100010
          -100 105 505 -105 vlineto
          hintmask 01100010
          -300 vlineto
          hintmask 01110100
          -78 hlineto
          hintmask 10110100
          -100 -127 vlineto
          endchar
        </CharString>
        <CharString name="underscore">
          -1 105 hstem
          66 -1 rmoveto
          77 0 28 0 50 0 27 0 50 0 28 0 50 0 27 0 78 0 0 105 -415 0 rlineto
          endchar
        </CharString>
        <CharString name="v">
          -1 105 -5 105 300 -20 hstemhm
          66 105 -28 105 -27 105 -28 105 -27 105 hintmask 01110000
          171 504 rmoveto
          -105 -305 hlineto
          hintmask 01101000
          77 -100 hlineto
          hintmask 01100100
          78 hlineto
          hintmask 10100100
          -100 105 vlineto
          hintmask 01100100
          100 vlineto
          hintmask 01100010
          77 100 hlineto
          hintmask 01100001
          78 305 -105 -300 hlineto
          hintmask 01101010
          -78 hlineto
          hintmask 10101010
          -100 -50 vlineto
          hintmask 01101000
          100 vlineto
          hintmask 01110000
          -77 hlineto
          endchar
        </CharString>
        <CharString name="w">
          -1 105 400 -20 hstemhm
          66 105 -28 105 -27 105 -28 105 -27 105 hintmask 11100000
          171 504 rmoveto
          -105 -405 hlineto
          hintmask 11010100
          77 -100 105 100 50 -100 105 100 hlineto
          hintmask 11101010
          78 405 -105 -400 -50 200 -105 -200 -50 hlineto
          endchar
        </CharString>
        <CharString name="x">
          -1 105 -5 105 95 105 -5 105 hstemhm
          66 105 -28 105 50 105 -27 105 hintmask 00011000
          66 399 rmoveto
          hintmask 00010100
          77 hlineto
          hintmask 01100100
          -100 78 -95 -78 vlineto
          hintmask 10000100
          -100 vlineto
          hintmask 10001000
          -77 -105 105 hlineto
          hintmask 01001000
          100 vlineto
          hintmask 01000110
          77 100 50 -100 hlineto
          hintmask 01000001
          78 hlineto
          hintmask 10000001
          -100 105 105 vlineto
          hintmask 10000010
          -78 hlineto
          hintmask 01100010
          100 -77 95 77 vlineto
          hintmask 00010010
          100 vlineto
          hintmask 00010001
          78 105 -105 hlineto
          hintmask 00100001
          -100 vlineto
          hintmask 00100110
          -78 -100 -50 100 hlineto
          hintmask 00101000
          -77 hlineto
          hintmask 00011000
          100 -105 vlineto
          endchar
        </CharString>
        <CharString name="y">
          -201 105 95 105 -5 105 300 -20 hstemhm
          66 105 -28 183 -28 183 -105 105 hintmask 10110101
          143 -201 rmoveto
          260 100 78 605 -105 -300 hlineto
          hintmask 10111010
          -78 hlineto
          hintmask 11011010
          -100 -127 400 -105 vlineto
          hintmask 10111000
          -405 vlineto
          hintmask 10110101
          77 hlineto
          hintmask 11010101
          -103 callsubr
          hintmask 10110101
          100 50 -195 -233 vlineto
          endchar
        </CharString>
        <CharString name="z">
          -1 105 95 105 95 105 hstemhm
          143 105 -27 105 -28 105 cntrmask 11100000
          hintmask 11100100
          66 399 rmoveto
          232 -95 hlineto
          hintmask 11101000
          -77 -100 hlineto
          hintmask 11110000
          -78 -100 -77 -105 77 hlineto
          28 0 rlineto
          hintmask 11101000
          50 0 rlineto
          hintmask 11110100
          27 0 50 0 rlineto
          hintmask 11101000
          28 0 50 0 rlineto
          hintmask 11110100
          27 0 78 0 0 105 -233 0 0 95 rlineto
          hintmask 11101000
          78 100 hlineto
          hintmask 11100100
          77 100 78 105 -415 hlineto
          endchar
        </CharString>
        <CharString name="zero">
          -1 105 95 105 -5 105 -5 105 95 105 hstemhm
          66 182 -182 105 -28 260 -182 105 -28 183 -105 105 hintmask 1001100000100000
          376 599 rmoveto
          -95 vlineto
          hintmask 1001100001000000
          -78 hlineto
          hintmask 1010100001000000
          -100 vlineto
          hintmask 1010101010100000
          -77 hlineto
          hintmask 1101101010100000
          -100 -50 295 vlineto
          hintmask 1000100100000000
          -28 105 rmoveto
          -100 vlineto
          hintmask 1000101000000000
          -77 -505 hlineto
          hintmask 1000100100000000
          77 -100 hlineto
          hintmask 1000100010000000
          78 0 rlineto
          hintmask 1000110001000000
          27 0 50 0 rlineto
          hintmask 1000100010000000
          28 0 rlineto
          hintmask 1000100100000000
          77 100 hlineto
          hintmask 1000100000100000
          78 505 hlineto
          hintmask 1000100100000000
          -78 100 hlineto
          hintmask 1101101010100000
          -77 -305 rmoveto
          50 -295 -205 95 hlineto
          hintmask 1100110000000000
          77 hlineto
          hintmask 1010110000000000
          100 vlineto
          hintmask 1010101010100000
          78 hlineto
          endchar
        </CharString>
</ttFont>
